<mxfile host="app.diagrams.net" modified="2023-10-24T01:16:43.645Z" agent="Mozilla/5.0 (Macintosh; Intel Mac OS X 10_15_7) AppleWebKit/605.1.15 (KHTML, like Gecko) Version/15.6.1 Safari/605.1.15" version="22.0.6" etag="nXVP_WKbiYk4AllpeOXL" type="github">
  <diagram name="Page-1" id="zF8-5gj9sV0AggdL8K3M">
    <mxGraphModel>
      <root>
        <mxCell id="0" />
        <mxCell id="1" parent="0" />
      </root>
    </mxGraphModel>
  </diagram>
</mxfile>
